Red Riding Hood 2011 R5 720p XviD AC3 LKRG 

info:
======================
Red Riding Hood 2011 R5 XviD 720p AC3 LKRG
Size	1.540 GB (1,653,028,802 bytes)

Encoded By .......:Xclusive
 Runtime ..........:1:37
 IMDb URL .........:http://www.imdb.com/title/tt1486185/
 Language .........:English
 File Size ........:1.5gb

 _______________________ Audio/Video _____________________________

 Video
 ID: 0
 Format: MPEG-4 Visual
 Format profile: Advanced Simple@L5
 Format settings, BVOP: Yes
 Format settings, QPel: No
 Format settings, GMC: No warppoints
 Format settings, Matrix: Default (H.263)
 Codec ID: XVID
 Codec ID/Hint: XviD
 Duration: 1h 38mn
 Bit rate: 1 799 Kbps
 Width: 720 pixels
 Height: 304 pixels
 Display aspect ratio: 2.35:1
 Frame rate: 25.000 fps
 Color space: YUV
 Chroma subsampling: 4:2:0
 Bit depth: 8 bits
 Scan type: Progressive
 Bits/(Pixel*Frame): 0.329
 Stream size: 1.24 GiB (82%)
 Writing library: XviD 1.2.1 (UTC 2008-12-04)

 Audio
 ID: 1
 Format: AC-3
 Format/Info: Audio Coding 3
 Mode extension: CM (complete main)
 Codec ID: 2000
 Duration: 1h 37mn
 Bit rate mode: Constant
 Bit rate: 384 Kbps
 Channel(s): 6 channels
 Channel positions: Front: L C R, Side: L R, LFE
 Sampling rate: 48.0 KHz
 Bit depth: 16 bits
 Video delay: 2s 700ms
 Stream size: 268 MiB (17%)
 Alignment: Split accross interleaves
 Interleave, duration: 506 ms (12.65 video frames)
 Interleave, preload duration: 500 ms